<?xml version="1.0" encoding="utf-8"?>
<!-- Generator: Adobe Illustrator 25.2.1, SVG Export Plug-In . SVG Version: 6.00 Build 0)  -->
<svg version="1.1" id="Calque_1" xmlns="http://www.w3.org/2000/svg" xmlns:xlink="http://www.w3.org/1999/xlink" x="0px" y="0px"
	 viewBox="0 0 200 190" style="enable-background:new 0 0 200 190;" xml:space="preserve">
<style type="text/css">
	.st0{fill:#E0DC53;stroke:#E0DC53;stroke-miterlimit:10;}
	.st1{fill:#F924FF;stroke:#F924FF;stroke-miterlimit:10;}
	.st2{fill:#59095B;stroke:#59095B;stroke-miterlimit:10;}
	.st3{fill:#FCA75D;stroke:#FCA75D;stroke-miterlimit:10;}
</style>
<g>
	<g>
		<g>
			<path class="st0" d="M95.2,16.2l0.9,151.3l-51.8,0.3c-2.2-0.1-19.3-1.5-29.4-15.8c-8.3-11.7-8.6-27.4-0.9-40.3
				c16.3-26.7,32.5-53.3,48.8-80c2-2.7,6.1-7.6,13.1-11.2C84,16.3,91.7,16.1,95.2,16.2z"/>
		</g>
		<g>
			<path class="st0" d="M95.2,16.2l-1,151.3l51.8,0.3c2.2-0.1,19.3-1.5,29.5-15.8c8.3-11.7,8.7-27.4,1-40.3
				c-16.2-26.7-32.5-53.3-48.7-80c-2-2.7-6.1-7.6-13.1-11.2C106.4,16.3,98.7,16.1,95.2,16.2z"/>
		</g>
	</g>
	<g>
		<g>
			<path class="st1" d="M104.9,22.2l0.9,151.3L54,173.8c-2.2-0.1-19.3-1.5-29.4-15.8c-8.3-11.7-8.6-27.4-0.9-40.3
				c16.3-26.7,32.5-53.3,48.8-80c2-2.7,6.1-7.6,13.1-11.2C93.7,22.2,101.4,22,104.9,22.2z"/>
		</g>
		<g>
			<path class="st1" d="M104.9,22.1l-1,151.3l51.8,0.3c2.2-0.1,19.3-1.5,29.5-15.8c8.3-11.7,8.7-27.4,1-40.3
				c-16.2-26.7-32.5-53.3-48.7-80c-2-2.7-6.1-7.6-13.1-11.2C116.1,22.2,108.4,22,104.9,22.1z"/>
		</g>
	</g>
	<g>
		<g>
			<path class="st2" d="M99.4,19.4l0.9,151.3l-51.8,0.3c-2.2-0.1-19.3-1.5-29.4-15.8c-8.3-11.7-8.6-27.4-0.9-40.3
				c16.3-26.7,32.5-53.3,48.8-80c2-2.7,6.1-7.6,13.1-11.2C88.2,19.5,95.9,19.3,99.4,19.4z"/>
		</g>
		<g>
			<path class="st2" d="M99.4,19.4l-1,151.3l51.8,0.3c2.2-0.1,19.3-1.5,29.5-15.8c8.3-11.7,8.7-27.4,1-40.3
				c-16.2-26.7-32.5-53.3-48.7-80c-2-2.7-6.1-7.6-13.1-11.2C110.6,19.5,102.9,19.3,99.4,19.4z"/>
		</g>
	</g>
	<path class="st0" d="M100.1,156.7L100.1,156.7c-27.6,0-50-22.4-50-50v0c0-27.6,22.4-50,50-50h0c27.6,0,50,22.4,50,50v0
		C150.1,134.3,127.7,156.7,100.1,156.7z"/>
	<path class="st3" d="M115.1,144.7L115.1,144.7c-19.3,0-35-15.7-35-35v0c0-19.3,15.7-35,35-35h0c19.3,0,35,15.7,35,35v0
		C150.1,129,134.4,144.7,115.1,144.7z"/>
</g>
</svg>
