<?xml version="1.0" encoding="utf-8"?>
<!-- Generator: Adobe Illustrator 25.2.1, SVG Export Plug-In . SVG Version: 6.00 Build 0)  -->
<svg version="1.1" id="Calque_1" xmlns="http://www.w3.org/2000/svg" xmlns:xlink="http://www.w3.org/1999/xlink" x="0px" y="0px"
	 viewBox="0 0 200 175" style="enable-background:new 0 0 200 175;" xml:space="preserve">
<style type="text/css">
	.st0{fill:#F924FF;stroke:#F924FF;stroke-miterlimit:10;}
</style>
<g>
	<g>
		<path class="st0" d="M100,3.9l1,165.7L44.3,170c-2.4-0.2-21.1-1.7-32.2-17.3c-9.1-12.8-9.5-30.1-1-44.1
			C28.9,79.4,46.7,50.2,64.5,21c2.2-3,6.7-8.3,14.3-12.3C87.8,4,96.2,3.8,100,3.9z"/>
	</g>
	<g>
		<path class="st0" d="M100,3.9l-1.1,165.7l56.7,0.4c2.4-0.2,21.1-1.7,32.3-17.3c9.1-12.8,9.5-30.1,1-44.1
			c-17.8-29.2-35.6-58.4-53.3-87.6c-2.2-3-6.7-8.3-14.3-12.3C112.3,4,103.9,3.8,100,3.9z"/>
	</g>
</g>
</svg>
